<svg width="25" height="25" viewBox="0 0 25 25" fill="none" xmlns="http://www.w3.org/2000/svg">
<path d="M7.77972 1.19021C6.95154 1.21041 6.29654 1.89816 6.31674 2.72634C6.33694 3.55452 7.02469 4.20952 7.85287 4.18932L7.77972 1.19021ZM22.8663 3.82314C23.6944 3.80294 24.3494 3.11519 24.3292 2.28701C24.309 1.45883 23.6213 0.803832 22.7931 0.824032L22.8663 3.82314ZM24.3293 2.36019C24.3495 1.532 23.6945 0.844257 22.8663 0.824057C22.0381 0.803858 21.3504 1.45886 21.3302 2.28704L24.3293 2.36019ZM20.964 17.3004C20.9438 18.1286 21.5988 18.8164 22.427 18.8366C23.2551 18.8568 23.9429 18.2018 23.9631 17.3736L20.964 17.3004ZM23.8903 3.38425C24.4761 2.79846 24.4761 1.84871 23.8903 1.26293C23.3046 0.67714 22.3548 0.67714 21.769 1.26293L23.8903 3.38425ZM1.26293 21.769C0.677147 22.3548 0.677147 23.3046 1.26293 23.8903C1.84872 24.4761 2.79847 24.4761 3.38425 23.8903L1.26293 21.769ZM7.8163 2.68977L7.85287 4.18932L22.8663 3.82314L22.8297 2.32359L22.7931 0.824032L7.77972 1.19021L7.8163 2.68977ZM22.8297 2.32361L21.3302 2.28704L20.964 17.3004L22.4635 17.337L23.9631 17.3736L24.3293 2.36019L22.8297 2.32361ZM22.8297 2.32359L21.769 1.26293L1.26293 21.769L2.32359 22.8297L3.38425 23.8903L23.8903 3.38425L22.8297 2.32359Z" fill="black"/>
</svg>
